# xmcd
#
# Track frame offsets: 
#        150
#        14668
#        29308
#        44348
#        67525
#        87553
#        102113
#        126583
#        152060
#        164520
#        194855
#        209613
#        234110
#        254140
#
# Disc length: 3522 seconds
#
# Revision: 0
# Processed by: cddbd v1.5.2PL0 Copyright (c) Steve Scherf et al.
# Submitted via: ExactAudioCopy v1.0b3
#
DISCID=ca0dc00e
DTITLE=Howard and The White Boys - Strung Out on the Blues
DYEAR=1900
DGENRE=Blues Rock
TTITLE0=Nightcrawler
TTITLE1=She Can Cook
TTITLE2=Nightmare Man
TTITLE3=Baby's Painting the Town
TTITLE4=Stick in the Mud
TTITLE5=I'm Gonna Hate Myself in the Morning
TTITLE6=Let Me Be Your Slave
TTITLE7=I've Got My Mojo Working
TTITLE8=Havin' a Good Time Is a Full-Time Job
TTITLE9=Turn on Your Love Light
TTITLE10=Black Cat
TTITLE11=Strung Out on the Blues
TTITLE12=The Blues Are Killin' Me
TTITLE13=Montezuma's Revenge
EXTD=
EXTT0=
EXTT1=
EXTT2=
EXTT3=
EXTT4=
EXTT5=
EXTT6=
EXTT7=
EXTT8=
EXTT9=
EXTT10=
EXTT11=
EXTT12=
EXTT13=
PLAYORDER=
